TITLE ""
FILE "1Q_t_1201-1209.mp3" MP3
  TRACK 01 AUDIO
    TITLE "1Q_t_1201-1209_01"
    INDEX 01 00:00:00
  TRACK 02 AUDIO
    TITLE "1Q_t_1201-1209_02"
    INDEX 01 00:00:12
  TRACK 03 AUDIO
    TITLE "1Q_t_1201-1209_03"
    INDEX 01 00:01:63
  TRACK 04 AUDIO
    TITLE "1Q_t_1201-1209_04"
    INDEX 01 00:02:33
  TRACK 05 AUDIO
    TITLE "1Q_t_1201-1209_05"
    INDEX 01 00:03:40
  TRACK 06 AUDIO
    TITLE "1Q_t_1201-1209_06"
    INDEX 01 00:04:08
  TRACK 07 AUDIO
    TITLE "1Q_t_1201-1209_07"
    INDEX 01 00:05:13
  TRACK 08 AUDIO
    TITLE "1Q_t_1201-1209_08"
    INDEX 01 00:05:21
  TRACK 09 AUDIO
    TITLE "1Q_t_1201-1209_09"
    INDEX 01 00:07:38
  TRACK 10 AUDIO
    TITLE "1Q_t_1201-1209_10"
    INDEX 01 00:07:44
  TRACK 11 AUDIO
    TITLE "1Q_t_1201-1209_11"
    INDEX 01 00:14:26
  TRACK 12 AUDIO
    TITLE "1Q_t_1201-1209_12"
    INDEX 01 00:14:71
  TRACK 13 AUDIO
    TITLE "1Q_t_1201-1209_13"
    INDEX 01 00:15:67
  TRACK 14 AUDIO
    TITLE "1Q_t_1201-1209_14"
    INDEX 01 00:16:00
  TRACK 15 AUDIO
    TITLE "1Q_t_1201-1209_15"
    INDEX 01 00:18:65
  TRACK 16 AUDIO
    TITLE "1Q_t_1201-1209_16"
    INDEX 01 00:18:71
  TRACK 17 AUDIO
    TITLE "1Q_t_1201-1209_17"
    INDEX 01 00:24:50
  TRACK 18 AUDIO
    TITLE "1Q_t_1201-1209_18"
    INDEX 01 00:25:22
  TRACK 19 AUDIO
    TITLE "1Q_t_1201-1209_19"
    INDEX 01 00:26:47
  TRACK 20 AUDIO
    TITLE "1Q_t_1201-1209_20"
    INDEX 01 00:26:55
  TRACK 21 AUDIO
    TITLE "1Q_t_1201-1209_21"
    INDEX 01 00:30:43
  TRACK 22 AUDIO
    TITLE "1Q_t_1201-1209_22"
    INDEX 01 00:30:49
  TRACK 23 AUDIO
    TITLE "1Q_t_1201-1209_23"
    INDEX 01 00:35:64
  TRACK 24 AUDIO
    TITLE "1Q_t_1201-1209_24"
    INDEX 01 00:36:34
  TRACK 25 AUDIO
    TITLE "1Q_t_1201-1209_25"
    INDEX 01 00:37:45
  TRACK 26 AUDIO
    TITLE "1Q_t_1201-1209_26"
    INDEX 01 00:37:53
  TRACK 27 AUDIO
    TITLE "1Q_t_1201-1209_27"
    INDEX 01 00:40:73
  TRACK 28 AUDIO
    TITLE "1Q_t_1201-1209_28"
    INDEX 01 00:41:03
  TRACK 29 AUDIO
    TITLE "1Q_t_1201-1209_29"
    INDEX 01 00:46:50
  TRACK 30 AUDIO
    TITLE "1Q_t_1201-1209_30"
    INDEX 01 00:47:18
  TRACK 31 AUDIO
    TITLE "1Q_t_1201-1209_31"
    INDEX 01 00:48:37
  TRACK 32 AUDIO
    TITLE "1Q_t_1201-1209_32"
    INDEX 01 00:48:43
  TRACK 33 AUDIO
    TITLE "1Q_t_1201-1209_33"
    INDEX 01 00:51:06
  TRACK 34 AUDIO
    TITLE "1Q_t_1201-1209_34"
    INDEX 01 00:51:12
  TRACK 35 AUDIO
    TITLE "1Q_t_1201-1209_35"
    INDEX 01 00:56:25
  TRACK 36 AUDIO
    TITLE "1Q_t_1201-1209_36"
    INDEX 01 00:56:66
  TRACK 37 AUDIO
    TITLE "1Q_t_1201-1209_37"
    INDEX 01 00:58:10
  TRACK 38 AUDIO
    TITLE "1Q_t_1201-1209_38"
    INDEX 01 00:58:18
  TRACK 39 AUDIO
    TITLE "1Q_t_1201-1209_39"
    INDEX 01 01:01:30
  TRACK 40 AUDIO
    TITLE "1Q_t_1201-1209_40"
    INDEX 01 01:01:35
  TRACK 41 AUDIO
    TITLE "1Q_t_1201-1209_41"
    INDEX 01 01:07:58
  TRACK 42 AUDIO
    TITLE "1Q_t_1201-1209_42"
    INDEX 01 01:08:30
  TRACK 43 AUDIO
    TITLE "1Q_t_1201-1209_43"
    INDEX 01 01:09:49
  TRACK 44 AUDIO
    TITLE "1Q_t_1201-1209_44"
    INDEX 01 01:09:57
  TRACK 45 AUDIO
    TITLE "1Q_t_1201-1209_45"
    INDEX 01 01:12:65
  TRACK 46 AUDIO
    TITLE "1Q_t_1201-1209_46"
    INDEX 01 01:12:72
  TRACK 47 AUDIO
    TITLE "1Q_t_1201-1209_47"
    INDEX 01 01:19:27
  TRACK 48 AUDIO
    TITLE "1Q_t_1201-1209_48"
    INDEX 01 01:19:73
  TRACK 49 AUDIO
    TITLE "1Q_t_1201-1209_49"
    INDEX 01 01:20:72
  TRACK 50 AUDIO
    TITLE "1Q_t_1201-1209_50"
    INDEX 01 01:21:07
  TRACK 51 AUDIO
    TITLE "1Q_t_1201-1209_51"
    INDEX 01 01:24:52
  TRACK 52 AUDIO
    TITLE "1Q_t_1201-1209_52"
    INDEX 01 01:24:58
  TRACK 53 AUDIO
    TITLE "1Q_t_1201-1209_53"
    INDEX 01 01:31:37
  TRACK 54 AUDIO
    TITLE "1Q_t_1201-1209_54"
    INDEX 01 01:32:07
  TRACK 55 AUDIO
    TITLE "1Q_t_1201-1209_55"
    INDEX 01 01:33:22
  TRACK 56 AUDIO
    TITLE "1Q_t_1201-1209_56"
    INDEX 01 01:33:30
  TRACK 57 AUDIO
    TITLE "1Q_t_1201-1209_57"
    INDEX 01 01:36:24
  TRACK 58 AUDIO
    TITLE "1Q_t_1201-1209_58"
    INDEX 01 01:36:32
  TRACK 59 AUDIO
    TITLE "1Q_t_1201-1209_59"
    INDEX 01 01:41:66
